<svg xmlns="http://www.w3.org/2000/svg" viewBox="0 0 711.11 800"><defs><style>.c2f5a10c-2aaf-48df-a6bf-d40965ced437{fill:#ccc;}</style></defs><title>资源 1</title><g id="6d00f4ae-5573-429f-979f-abccb5707fc3" data-name="图层 2"><g id="062d0cad-68cb-436e-ad05-2b99a89b7afe" data-name="图层 1"><path class="c2f5a10c-2aaf-48df-a6bf-d40965ced437" d="M71.11,657.78A142.17,142.17,0,0,0,213.33,800H497.78A142.17,142.17,0,0,0,640,657.78V160H71.11Zm35.56-462.22H604.44V657.78A106.63,106.63,0,0,1,497.78,764.44H213.33A106.59,106.59,0,0,1,106.67,657.78Z"/><polygon class="c2f5a10c-2aaf-48df-a6bf-d40965ced437" points="462.22 53.33 462.22 0 248.89 0 248.89 53.33 0 53.33 0 88.89 711.11 88.89 711.11 53.33 462.22 53.33"/><rect class="c2f5a10c-2aaf-48df-a6bf-d40965ced437" x="337.78" y="266.67" width="35.56" height="426.67"/><polygon class="c2f5a10c-2aaf-48df-a6bf-d40965ced437" points="515.56 266.67 480 266.67 480 693.33 515.56 657.78 515.56 266.67"/><polygon class="c2f5a10c-2aaf-48df-a6bf-d40965ced437" points="231.11 266.67 195.56 266.67 195.56 657.78 231.11 693.33 231.11 266.67"/></g></g></svg>