<svg id="cd471718-acbf-4c0b-a106-871a6112f0a2" data-name="图层 1" xmlns="http://www.w3.org/2000/svg" viewBox="0 0 81 81"><defs><style>.fc2e15d5-1a66-424b-8ea2-e776c103537f{fill:#ccc;}</style></defs><title>phone-gray</title><path class="fc2e15d5-1a66-424b-8ea2-e776c103537f" d="M70.34,56.7a3,3,0,0,0-1.17-1.52L60,49a3,3,0,0,0-1.59-.5H58.3a3,3,0,0,0-1.54.43l-6.62,4a5.93,5.93,0,0,1-2.58.58c-3.52,0-7.67-2.86-12.44-7.64-6-6-9-11-7.06-15l4-6.62a2.94,2.94,0,0,0,.43-1.61A3,3,0,0,0,32,21l-6.15-9.21a3,3,0,0,0-1.51-1.17,3.05,3.05,0,0,0-1.92,0l-4.17,1.4h0c-7.89,3.34-15.46,18.38,8.46,42.3,12.12,12.13,22,16.16,29.16,16.16,7,0,11.49-3.82,13.14-7.71h0l1.4-4.17A3,3,0,0,0,70.34,56.7Z"/></svg>